# File created by Blade
# Date/Time:  Tue Jan 27 19:32:37 2015
# Frame Rate: 120.000 fps
#------------------------------------------------------
:FULLY-SPECIFIED
:DEGREES
2086
root 3.983840 32.207852 -0.361435 -5.679625 -0.738552 -0.198260
Spine 1.895842 5.323200 0.251562
Head 19.487654 -31.529150 -6.448723
LeftShoulder -3.164052 -7.014816 25.390760
LeftArm -0.399861 42.146613 -99.805800
LeftForeArm 2.331318 -0.000000 9.877866
LeftHand 9.987607 -0.000000 -5.755347
LeftHandThumb1 -26.253704 0.000000 33.147579
RightShoulder -9.895764 -5.740336 -26.893092
RightArm 10.174117 56.459049 67.140462
RightForeArm 18.246777 -0.000000 123.710955
RightHand 28.207147 0.000000 -29.847996
RightHandThumb1 -24.326973 -0.000000 -32.862282
LeftUpLeg 11.870129 2.526732 -1.609716
LeftLeg 2.822097 -0.000000 -0.000000
LeftFoot -21.864750 18.070925 -23.056953
LeftToeBase 16.339708 -0.000000 -0.000000
RightUpLeg 10.343925 -8.310717 0.780794
RightLeg 1.265008 -0.000000 -0.000000
RightFoot -13.258811 -12.738846 14.384599
RightToeBase 11.394645 -0.000000 -0.000000
2087
root 3.983696 32.208306 -0.359692 -5.648217 -0.699638 -0.190857
Spine 1.871709 5.213805 0.239201
Head 19.502121 -31.434655 -6.432404
LeftShoulder -3.247263 -6.986437 25.415675
LeftArm -0.396047 42.191819 -99.789914
LeftForeArm 2.361101 -0.000000 9.841088
LeftHand 10.021627 -0.000000 -5.792712
LeftHandThumb1 -26.253704 0.000000 33.147579
RightShoulder -10.015013 -5.897736 -27.013847
RightArm 9.344676 56.646398 66.281565
RightForeArm 18.527664 -0.000000 123.725940
RightHand 28.192610 0.000000 -30.063662
RightHandThumb1 -24.326973 -0.000000 -32.862282
LeftUpLeg 11.834298 2.492950 -1.619229
LeftLeg 2.826345 -0.000000 -0.000000
LeftFoot -21.851976 18.055929 -23.076535
LeftToeBase 16.288064 -0.000000 -0.000000
RightUpLeg 10.314330 -8.306405 0.782148
RightLeg 1.280296 -0.000000 -0.000000
RightFoot -13.274105 -12.773479 14.412637
RightToeBase 11.388766 -0.000000 -0.000000
2088
root 3.982513 32.208322 -0.355580 -5.628048 -0.664965 -0.185036
Spine 1.848647 5.130410 0.236838
Head 19.523204 -31.354998 -6.424328
LeftShoulder -3.301283 -6.927962 25.425781
LeftArm -0.354856 42.261096 -99.741600
LeftForeArm 2.347080 -0.000000 9.821790
LeftHand 10.045634 -0.000000 -5.802629
LeftHandThumb1 -26.253704 0.000000 33.147579
RightShoulder -10.168885 -6.148554 -27.097086
RightArm 8.770366 56.932397 65.620779
RightForeArm 18.834026 -0.000000 123.716242
RightHand 28.287133 -0.000000 -29.664138
RightHandThumb1 -24.326973 -0.000000 -32.862282
LeftUpLeg 11.821448 2.487603 -1.619061
LeftLeg 2.820289 -0.000000 -0.000000
LeftFoot -21.809032 18.003243 -23.076619
LeftToeBase 16.180683 -0.000000 -0.000000
RightUpLeg 10.302926 -8.278430 0.788961
RightLeg 1.285869 -0.000000 -0.000000
RightFoot -13.307003 -12.835846 14.428199
RightToeBase 11.335944 -0.000000 -0.000000
2089
root 3.982806 32.208818 -0.349785 -5.612126 -0.604453 -0.173172
Spine 1.837156 5.023180 0.227695
Head 19.519940 -31.271614 -6.405811
LeftShoulder -3.383008 -6.878467 25.445945
LeftArm -0.326558 42.317653 -99.702065
LeftForeArm 2.405282 0.000000 9.836235
LeftHand 10.031757 0.000000 -5.865383
LeftHandThumb1 -26.253704 0.000000 33.147579
RightShoulder -10.342266 -6.351290 -27.181545
RightArm 8.075156 57.231314 64.858936
RightForeArm 19.064685 -0.000000 123.754119
RightHand 27.996350 -0.000000 -29.156791
RightHandThumb1 -24.326973 -0.000000 -32.862282
LeftUpLeg 11.818157 2.448346 -1.631986
LeftLeg 2.798317 -0.000000 -0.000000
LeftFoot -21.816974 18.000179 -23.072377
LeftToeBase 16.373386 -0.000000 -0.000000
RightUpLeg 10.302307 -8.304264 0.776152
RightLeg 1.292891 -0.000000 -0.000000
RightFoot -13.326334 -12.862645 14.437999
RightToeBase 11.270302 -0.000000 -0.000000
2090
root 3.982298 32.209805 -0.344383 -5.601340 -0.538124 -0.165058
Spine 1.826025 4.900823 0.227581
Head 19.551215 -31.179595 -6.425517
LeftShoulder -3.456043 -6.813341 25.445167
LeftArm -0.287923 42.356114 -99.643310
LeftForeArm 2.423107 -0.000000 9.850769
LeftHand 10.082588 -0.000000 -5.818734
LeftHandThumb1 -26.253704 0.000000 33.147579
RightShoulder -10.488618 -6.647728 -27.269190
RightArm 7.487780 57.530913 64.197361
RightForeArm 19.150251 -0.000000 123.769891
RightHand 28.051544 -0.000000 -29.524635
RightHandThumb1 -24.326973 -0.000000 -32.862282
LeftUpLeg 11.817692 2.425935 -1.634139
LeftLeg 2.777191 -0.000000 -0.000000
LeftFoot -21.765966 17.969019 -23.040542
LeftToeBase 16.378343 -0.000000 -0.000000
RightUpLeg 10.310743 -8.334107 0.767428
RightLeg 1.293467 -0.000000 -0.000000
RightFoot -13.355046 -12.877344 14.479610
RightToeBase 11.331754 -0.000000 -0.000000
2091
root 3.982934 32.210064 -0.338824 -5.586400 -0.451023 -0.155906
Spine 1.814426 4.747262 0.231983
Head 19.571108 -31.071937 -6.469898
LeftShoulder -3.549849 -6.720817 25.438956
LeftArm -0.226818 42.379327 -99.567140
LeftForeArm 2.455565 0.000000 9.902703
LeftHand 10.038823 -0.000000 -5.816986
LeftHandThumb1 -26.253704 0.000000 33.147579
RightShoulder -10.645054 -6.964688 -27.371601
RightArm 6.883708 57.880440 63.568835
RightForeArm 18.836378 -0.000000 123.805909
RightHand 27.779711 -0.000000 -29.473610
RightHandThumb1 -24.326973 -0.000000 -32.862282
LeftUpLeg 11.810956 2.377675 -1.641825
LeftLeg 2.761238 -0.000000 -0.000000
LeftFoot -21.729914 17.925598 -23.022785
LeftToeBase 16.387095 -0.000000 -0.000000
RightUpLeg 10.324035 -8.396761 0.754137
RightLeg 1.280475 -0.000000 -0.000000
RightFoot -13.368096 -12.901039 14.493845
RightToeBase 11.301154 -0.000000 -0.000000
2092
root 3.983594 32.211142 -0.333470 -5.568455 -0.342367 -0.144791
Spine 1.791663 4.597789 0.237696
Head 19.633517 -31.007604 -6.550385
LeftShoulder -3.596096 -6.677545 25.412951
LeftArm -0.234539 42.369482 -99.525080
LeftForeArm 2.486828 -0.000000 9.960351
LeftHand 10.134541 -0.000000 -5.781836
LeftHandThumb1 -26.253704 0.000000 33.147579
RightShoulder -10.830338 -7.272026 -27.451667
RightArm 6.336756 58.257272 62.969541
RightForeArm 18.803439 -0.000000 123.819095
RightHand 27.978764 -0.000000 -29.741279
RightHandThumb1 -24.326973 -0.000000 -32.862282
LeftUpLeg 11.792012 2.313773 -1.656267
LeftLeg 2.753761 -0.000000 -0.000000
LeftFoot -21.695223 17.898940 -23.006901
LeftToeBase 16.386232 -0.000000 -0.000000
RightUpLeg 10.338341 -8.480511 0.735606
RightLeg 1.265381 -0.000000 -0.000000
RightFoot -13.370939 -12.933774 14.482166
RightToeBase 11.239085 -0.000000 -0.000000
2093
root 3.985144 32.211799 -0.325984 -5.553416 -0.233317 -0.127134
Spine 1.771446 4.388666 0.245643
Head 19.676054 -30.879764 -6.640147
LeftShoulder -3.701003 -6.599330 25.382829
LeftArm -0.253716 42.339412 -99.478856
LeftForeArm 2.506672 -0.000000 10.066079
LeftHand 10.130103 -0.000000 -5.725723
LeftHandThumb1 -26.253704 0.000000 33.147579
RightShoulder -10.998082 -7.544458 -27.554880
RightArm 5.802641 58.565712 62.410132
RightForeArm 18.637554 -0.000000 123.855232
RightHand 28.021408 -0.000000 -29.612795
RightHandThumb1 -24.326973 -0.000000 -32.862282
LeftUpLeg 11.793591 2.269048 -1.671493
LeftLeg 2.719257 -0.000000 -0.000000
LeftFoot -21.642159 17.856280 -22.968320
LeftToeBase 16.434539 -0.000000 -0.000000
RightUpLeg 10.359398 -8.587633 0.705094
RightLeg 1.250058 -0.000000 -0.000000
RightFoot -13.398734 -12.945046 14.479646
RightToeBase 11.307089 -0.000000 -0.000000
2094
root 3.988446 32.212872 -0.319803 -5.542856 -0.127780 -0.105696
Spine 1.744287 4.257102 0.246729
Head 19.791014 -30.839874 -6.734476
LeftShoulder -3.715844 -6.531790 25.345352
LeftArm -0.247527 42.274075 -99.428658
LeftForeArm 2.532784 0.000000 10.163821
LeftHand 10.126055 -0.000000 -5.639663
LeftHandThumb1 -26.253704 0.000000 33.147579
RightShoulder -11.192572 -7.792955 -27.646066
RightArm 5.161466 58.887602 61.775594
RightForeArm 18.449134 -0.000000 123.877567
RightHand 28.047732 -0.000000 -29.580098
RightHandThumb1 -24.326973 -0.000000 -32.862282
LeftUpLeg 11.786060 2.265303 -1.682209
LeftLeg 2.709390 -0.000000 -0.000000
LeftFoot -21.540672 17.680859 -23.036585
LeftToeBase 16.199278 -0.000000 -0.000000
RightUpLeg 10.378404 -8.678534 0.669265
RightLeg 1.244528 -0.000000 -0.000000
RightFoot -13.411814 -12.954588 14.484551
RightToeBase 11.232764 -0.000000 -0.000000
2095
root 3.987276 32.212931 -0.312954 -5.537961 -0.005162 -0.101705
Spine 1.753566 4.056009 0.257742
Head 19.812453 -30.728357 -6.778213
LeftShoulder -3.801630 -6.498821 25.326152
LeftArm -0.309014 42.224824 -99.415268
LeftForeArm 2.548386 -0.000000 10.298333
LeftHand 10.114184 -0.000000 -5.549180
LeftHandThumb1 -26.253704 0.000000 33.147579
RightShoulder -11.344972 -7.955535 -27.753260
RightArm 4.414780 59.287426 61.097195
RightForeArm 18.184730 0.000000 123.900660
RightHand 28.162507 -0.000000 -29.649066
RightHandThumb1 -24.326973 -0.000000 -32.862282
LeftUpLeg 11.800244 2.178344 -1.686198
LeftLeg 2.664513 -0.000000 -0.000000
LeftFoot -21.525931 17.685853 -22.994716
LeftToeBase 16.347226 -0.000000 -0.000000
RightUpLeg 10.408458 -8.815381 0.650532
RightLeg 1.235327 -0.000000 -0.000000
RightFoot -13.418678 -12.949721 14.465030
RightToeBase 11.221611 -0.000000 -0.000000
2096
root 3.992025 32.213202 -0.305627 -5.530605 0.118036 -0.070110
Spine 1.743412 3.871867 0.264688
Head 19.871269 -30.624566 -6.891894
LeftShoulder -3.865276 -6.422101 25.276154
LeftArm -0.304477 42.177716 -99.360084
LeftForeArm 2.535081 -0.000000 10.418572
LeftHand 10.100163 -0.000000 -5.564849
LeftHandThumb1 -26.253704 0.000000 33.147579
RightShoulder -11.517946 -8.421612 -27.812277
RightArm 4.276358 59.831356 60.965778
RightForeArm 18.157328 -0.000000 123.941310
RightHand 28.200988 -0.000000 -29.450989
RightHandThumb1 -24.326973 -0.000000 -32.862282
LeftUpLeg 11.797532 2.124680 -1.722060
LeftLeg 2.648487 -0.000000 -0.000000
LeftFoot -21.467987 17.635289 -22.960963
LeftToeBase 16.412796 -0.000000 -0.000000
RightUpLeg 10.437698 -8.892805 0.604869
RightLeg 1.222729 -0.000000 -0.000000
RightFoot -13.466333 -12.982694 14.509623
RightToeBase 11.225953 -0.000000 -0.000000
2097
root 3.995048 32.213248 -0.299859 -5.529777 0.236989 -0.052663
Spine 1.743103 3.684530 0.270063
Head 19.944511 -30.528123 -6.979705
LeftShoulder -3.929486 -6.376208 25.253688
LeftArm -0.334784 42.117685 -99.352478
LeftForeArm 2.543593 -0.000000 10.538756
LeftHand 10.069417 -0.000000 -5.536346
LeftHandThumb1 -26.253704 0.000000 33.147579
RightShoulder -11.701276 -8.445972 -27.911118
RightArm 3.481858 60.115402 60.260007
RightForeArm 18.009771 0.000000 123.926600
RightHand 28.504226 -0.000000 -28.850940
RightHandThumb1 -24.326973 -0.000000 -32.862282
LeftUpLeg 11.807500 2.063252 -1.742866
LeftLeg 2.618635 -0.000000 -0.000000
LeftFoot -21.430233 17.636324 -22.867005
LeftToeBase 16.588398 -0.000000 -0.000000
RightUpLeg 10.476190 -8.969246 0.573974
RightLeg 1.201891 -0.000000 -0.000000
RightFoot -13.499336 -13.007207 14.543717
RightToeBase 11.248027 -0.000000 -0.000000
